<mxfile host="app.diagrams.net" agent="Mozilla/5.0 (Windows NT 10.0; Win64; x64) AppleWebKit/537.36 (KHTML, like Gecko) Chrome/137.0.0.0 Safari/537.36" version="27.1.4">
  <diagram name="Página-1" id="eJlOVwgExiH8n0GNvL-U">
    <mxGraphModel dx="2037" dy="1061" grid="1" gridSize="10" guides="1" tooltips="1" connect="1" arrows="1" fold="1" page="1" pageScale="1" pageWidth="1169" pageHeight="827" math="0" shadow="0">
      <root>
        <mxCell id="0" />
        <mxCell id="1" parent="0" />
        <mxCell id="WsmTqJtfwTThgb06gDy2-126" value="" style="rounded=0;whiteSpace=wrap;html=1;dashed=1;" vertex="1" parent="1">
          <mxGeometry x="802" y="240" width="130" height="360" as="geometry" />
        </mxCell>
        <mxCell id="WsmTqJtfwTThgb06gDy2-123" value="" style="rounded=0;whiteSpace=wrap;html=1;dashed=1;" vertex="1" parent="1">
          <mxGeometry x="162" y="170" width="130" height="100" as="geometry" />
        </mxCell>
        <mxCell id="WsmTqJtfwTThgb06gDy2-115" value="" style="rounded=0;whiteSpace=wrap;html=1;dashed=1;" vertex="1" parent="1">
          <mxGeometry x="355" y="239" width="380" height="361" as="geometry" />
        </mxCell>
        <mxCell id="WsmTqJtfwTThgb06gDy2-113" value="" style="whiteSpace=wrap;html=1;dashed=1;" vertex="1" parent="1">
          <mxGeometry x="375" y="408" width="120" height="161" as="geometry" />
        </mxCell>
        <mxCell id="WsmTqJtfwTThgb06gDy2-72" value="PIPELINE DE DADOS INTERMEDIÁRIO" style="rounded=0;whiteSpace=wrap;html=1;" vertex="1" parent="1">
          <mxGeometry x="30" y="40" width="1070" height="60" as="geometry" />
        </mxCell>
        <mxCell id="WsmTqJtfwTThgb06gDy2-83" value="" style="sketch=0;points=[[0,0,0],[0.25,0,0],[0.5,0,0],[0.75,0,0],[1,0,0],[0,1,0],[0.25,1,0],[0.5,1,0],[0.75,1,0],[1,1,0],[0,0.25,0],[0,0.5,0],[0,0.75,0],[1,0.25,0],[1,0.5,0],[1,0.75,0]];outlineConnect=0;fontColor=#232F3E;fillColor=#E7157B;strokeColor=#ffffff;dashed=0;verticalLabelPosition=bottom;verticalAlign=top;align=center;html=1;fontSize=12;fontStyle=0;aspect=fixed;shape=mxgraph.aws4.resourceIcon;resIcon=mxgraph.aws4.eventbridge;" vertex="1" parent="1">
          <mxGeometry x="50" y="380" width="54" height="54" as="geometry" />
        </mxCell>
        <mxCell id="WsmTqJtfwTThgb06gDy2-84" value="Event Bridge" style="text;html=1;align=center;verticalAlign=middle;resizable=0;points=[];autosize=1;strokeColor=none;fillColor=none;" vertex="1" parent="1">
          <mxGeometry x="32" y="434" width="90" height="30" as="geometry" />
        </mxCell>
        <mxCell id="WsmTqJtfwTThgb06gDy2-85" value="" style="sketch=0;points=[[0,0,0],[0.25,0,0],[0.5,0,0],[0.75,0,0],[1,0,0],[0,1,0],[0.25,1,0],[0.5,1,0],[0.75,1,0],[1,1,0],[0,0.25,0],[0,0.5,0],[0,0.75,0],[1,0.25,0],[1,0.5,0],[1,0.75,0]];outlineConnect=0;fontColor=#232F3E;fillColor=#E7157B;strokeColor=#ffffff;dashed=0;verticalLabelPosition=bottom;verticalAlign=top;align=center;html=1;fontSize=12;fontStyle=0;aspect=fixed;shape=mxgraph.aws4.resourceIcon;resIcon=mxgraph.aws4.step_functions;" vertex="1" parent="1">
          <mxGeometry x="200" y="380" width="54" height="54" as="geometry" />
        </mxCell>
        <mxCell id="WsmTqJtfwTThgb06gDy2-86" value="Step Function" style="text;html=1;align=center;verticalAlign=middle;resizable=0;points=[];autosize=1;strokeColor=none;fillColor=none;" vertex="1" parent="1">
          <mxGeometry x="180" y="436" width="100" height="30" as="geometry" />
        </mxCell>
        <mxCell id="WsmTqJtfwTThgb06gDy2-90" value="" style="sketch=0;points=[[0,0,0],[0.25,0,0],[0.5,0,0],[0.75,0,0],[1,0,0],[0,1,0],[0.25,1,0],[0.5,1,0],[0.75,1,0],[1,1,0],[0,0.25,0],[0,0.5,0],[0,0.75,0],[1,0.25,0],[1,0.5,0],[1,0.75,0]];outlineConnect=0;fontColor=#232F3E;fillColor=#E7157B;strokeColor=#ffffff;dashed=0;verticalLabelPosition=bottom;verticalAlign=top;align=center;html=1;fontSize=12;fontStyle=0;aspect=fixed;shape=mxgraph.aws4.resourceIcon;resIcon=mxgraph.aws4.sns;" vertex="1" parent="1">
          <mxGeometry x="200" y="186" width="54" height="54" as="geometry" />
        </mxCell>
        <mxCell id="WsmTqJtfwTThgb06gDy2-91" value="SNS" style="text;html=1;align=center;verticalAlign=middle;resizable=0;points=[];autosize=1;strokeColor=none;fillColor=none;" vertex="1" parent="1">
          <mxGeometry x="204" y="240" width="50" height="30" as="geometry" />
        </mxCell>
        <mxCell id="WsmTqJtfwTThgb06gDy2-93" value="" style="shape=cylinder3;whiteSpace=wrap;html=1;boundedLbl=1;backgroundOutline=1;size=15;" vertex="1" parent="1">
          <mxGeometry x="410" y="439" width="50" height="60" as="geometry" />
        </mxCell>
        <mxCell id="WsmTqJtfwTThgb06gDy2-94" value="Banco de dados&lt;br&gt;OLTP" style="text;html=1;align=center;verticalAlign=middle;resizable=0;points=[];autosize=1;strokeColor=none;fillColor=none;" vertex="1" parent="1">
          <mxGeometry x="380" y="503" width="110" height="40" as="geometry" />
        </mxCell>
        <mxCell id="WsmTqJtfwTThgb06gDy2-95" value="" style="image;perimeter=ellipsePerimeter;html=1;align=center;shadow=0;dashed=0;spacingTop=3;image=img/lib/active_directory/database.svg;" vertex="1" parent="1">
          <mxGeometry x="520" y="449" width="60" height="60" as="geometry" />
        </mxCell>
        <mxCell id="WsmTqJtfwTThgb06gDy2-96" value="Raw" style="text;html=1;align=center;verticalAlign=middle;resizable=0;points=[];autosize=1;strokeColor=none;fillColor=none;" vertex="1" parent="1">
          <mxGeometry x="525" y="503" width="50" height="30" as="geometry" />
        </mxCell>
        <mxCell id="WsmTqJtfwTThgb06gDy2-97" value="" style="image;perimeter=ellipsePerimeter;html=1;align=center;shadow=0;dashed=0;spacingTop=3;image=img/lib/active_directory/database.svg;" vertex="1" parent="1">
          <mxGeometry x="635" y="444" width="60" height="70" as="geometry" />
        </mxCell>
        <mxCell id="WsmTqJtfwTThgb06gDy2-98" value="Processed" style="text;html=1;align=center;verticalAlign=middle;resizable=0;points=[];autosize=1;strokeColor=none;fillColor=none;" vertex="1" parent="1">
          <mxGeometry x="625" y="503" width="80" height="30" as="geometry" />
        </mxCell>
        <mxCell id="WsmTqJtfwTThgb06gDy2-99" value="" style="image;aspect=fixed;html=1;points=[];align=center;fontSize=12;image=img/lib/azure2/analytics/Power_BI_Embedded.svg;" vertex="1" parent="1">
          <mxGeometry x="840" y="357" width="54" height="72" as="geometry" />
        </mxCell>
        <mxCell id="WsmTqJtfwTThgb06gDy2-100" value="Power BI" style="text;html=1;align=center;verticalAlign=middle;resizable=0;points=[];autosize=1;strokeColor=none;fillColor=none;" vertex="1" parent="1">
          <mxGeometry x="832" y="434" width="70" height="30" as="geometry" />
        </mxCell>
        <mxCell id="WsmTqJtfwTThgb06gDy2-101" value="" style="sketch=0;verticalLabelPosition=bottom;sketch=0;aspect=fixed;html=1;verticalAlign=top;strokeColor=none;fillColor=#000000;align=center;outlineConnect=0;pointerEvents=1;shape=mxgraph.citrix2.users;" vertex="1" parent="1">
          <mxGeometry x="1000" y="398.36" width="80" height="42.29" as="geometry" />
        </mxCell>
        <mxCell id="WsmTqJtfwTThgb06gDy2-102" value="Business Analytics" style="text;html=1;align=center;verticalAlign=middle;resizable=0;points=[];autosize=1;strokeColor=none;fillColor=none;" vertex="1" parent="1">
          <mxGeometry x="980" y="449" width="120" height="30" as="geometry" />
        </mxCell>
        <mxCell id="WsmTqJtfwTThgb06gDy2-103" value="" style="outlineConnect=0;dashed=0;verticalLabelPosition=bottom;verticalAlign=top;align=center;html=1;shape=mxgraph.aws3.lambda;fillColor=#F58534;gradientColor=none;" vertex="1" parent="1">
          <mxGeometry x="518" y="259" width="54" height="54" as="geometry" />
        </mxCell>
        <mxCell id="WsmTqJtfwTThgb06gDy2-104" value="Lambda" style="text;html=1;align=center;verticalAlign=middle;resizable=0;points=[];autosize=1;strokeColor=none;fillColor=none;" vertex="1" parent="1">
          <mxGeometry x="510" y="307" width="70" height="30" as="geometry" />
        </mxCell>
        <mxCell id="WsmTqJtfwTThgb06gDy2-107" value="EC2 instance contents" style="points=[[0,0],[0.25,0],[0.5,0],[0.75,0],[1,0],[1,0.25],[1,0.5],[1,0.75],[1,1],[0.75,1],[0.5,1],[0.25,1],[0,1],[0,0.75],[0,0.5],[0,0.25]];outlineConnect=0;gradientColor=none;html=1;whiteSpace=wrap;fontSize=12;fontStyle=0;container=1;pointerEvents=0;collapsible=0;recursiveResize=0;shape=mxgraph.aws4.group;grIcon=mxgraph.aws4.group_ec2_instance_contents;strokeColor=#D86613;fillColor=none;verticalAlign=top;align=left;spacingLeft=30;fontColor=#D86613;dashed=1;" vertex="1" parent="1">
          <mxGeometry x="505" y="408" width="215" height="161" as="geometry" />
        </mxCell>
        <mxCell id="WsmTqJtfwTThgb06gDy2-108" value="Data Warehouse" style="text;html=1;align=center;verticalAlign=middle;resizable=0;points=[];autosize=1;strokeColor=none;fillColor=none;" vertex="1" parent="1">
          <mxGeometry x="495" y="378" width="110" height="30" as="geometry" />
        </mxCell>
        <mxCell id="WsmTqJtfwTThgb06gDy2-114" value="Fonte" style="text;html=1;align=center;verticalAlign=middle;resizable=0;points=[];autosize=1;strokeColor=none;fillColor=none;" vertex="1" parent="1">
          <mxGeometry x="370" y="378" width="50" height="30" as="geometry" />
        </mxCell>
        <mxCell id="WsmTqJtfwTThgb06gDy2-116" value="ETL" style="text;html=1;align=center;verticalAlign=middle;resizable=0;points=[];autosize=1;strokeColor=none;fillColor=none;" vertex="1" parent="1">
          <mxGeometry x="340" y="209" width="50" height="30" as="geometry" />
        </mxCell>
        <mxCell id="WsmTqJtfwTThgb06gDy2-117" value="" style="endArrow=classic;html=1;rounded=0;exitX=1;exitY=0.5;exitDx=0;exitDy=0;entryX=0;entryY=0.5;entryDx=0;entryDy=0;" edge="1" parent="1" source="WsmTqJtfwTThgb06gDy2-95" target="WsmTqJtfwTThgb06gDy2-97">
          <mxGeometry width="50" height="50" relative="1" as="geometry">
            <mxPoint x="520" y="380" as="sourcePoint" />
            <mxPoint x="570" y="330" as="targetPoint" />
          </mxGeometry>
        </mxCell>
        <mxCell id="WsmTqJtfwTThgb06gDy2-118" style="edgeStyle=orthogonalEdgeStyle;rounded=0;orthogonalLoop=1;jettySize=auto;html=1;exitX=1;exitY=0.5;exitDx=0;exitDy=0;exitPerimeter=0;entryX=-0.005;entryY=0.467;entryDx=0;entryDy=0;entryPerimeter=0;" edge="1" parent="1" source="WsmTqJtfwTThgb06gDy2-85" target="WsmTqJtfwTThgb06gDy2-115">
          <mxGeometry relative="1" as="geometry" />
        </mxCell>
        <mxCell id="WsmTqJtfwTThgb06gDy2-120" style="edgeStyle=orthogonalEdgeStyle;rounded=0;orthogonalLoop=1;jettySize=auto;html=1;exitX=1;exitY=0.5;exitDx=0;exitDy=0;exitPerimeter=0;entryX=0;entryY=0.5;entryDx=0;entryDy=0;entryPerimeter=0;" edge="1" parent="1" source="WsmTqJtfwTThgb06gDy2-83" target="WsmTqJtfwTThgb06gDy2-85">
          <mxGeometry relative="1" as="geometry" />
        </mxCell>
        <mxCell id="WsmTqJtfwTThgb06gDy2-122" style="edgeStyle=orthogonalEdgeStyle;rounded=0;orthogonalLoop=1;jettySize=auto;html=1;exitX=0.5;exitY=0;exitDx=0;exitDy=0;exitPerimeter=0;" edge="1" parent="1" source="WsmTqJtfwTThgb06gDy2-85">
          <mxGeometry relative="1" as="geometry">
            <mxPoint x="227" y="270" as="targetPoint" />
          </mxGeometry>
        </mxCell>
        <mxCell id="WsmTqJtfwTThgb06gDy2-124" value="Failure Notification" style="text;html=1;align=center;verticalAlign=middle;resizable=0;points=[];autosize=1;strokeColor=none;fillColor=none;" vertex="1" parent="1">
          <mxGeometry x="160" y="140" width="120" height="30" as="geometry" />
        </mxCell>
        <mxCell id="WsmTqJtfwTThgb06gDy2-127" value="Consumption" style="text;html=1;align=center;verticalAlign=middle;resizable=0;points=[];autosize=1;strokeColor=none;fillColor=none;" vertex="1" parent="1">
          <mxGeometry x="790" y="209" width="90" height="30" as="geometry" />
        </mxCell>
        <mxCell id="WsmTqJtfwTThgb06gDy2-129" value="" style="endArrow=classic;html=1;rounded=0;exitX=1;exitY=0.5;exitDx=0;exitDy=0;exitPerimeter=0;entryX=0.5;entryY=0;entryDx=0;entryDy=0;" edge="1" parent="1" source="WsmTqJtfwTThgb06gDy2-103" target="WsmTqJtfwTThgb06gDy2-107">
          <mxGeometry width="50" height="50" relative="1" as="geometry">
            <mxPoint x="350" y="430" as="sourcePoint" />
            <mxPoint x="400" y="380" as="targetPoint" />
            <Array as="points">
              <mxPoint x="610" y="286" />
            </Array>
          </mxGeometry>
        </mxCell>
        <mxCell id="WsmTqJtfwTThgb06gDy2-130" value="" style="endArrow=classic;html=1;rounded=0;entryX=0;entryY=0.5;entryDx=0;entryDy=0;entryPerimeter=0;exitX=0.5;exitY=0;exitDx=0;exitDy=0;" edge="1" parent="1" source="WsmTqJtfwTThgb06gDy2-113" target="WsmTqJtfwTThgb06gDy2-103">
          <mxGeometry width="50" height="50" relative="1" as="geometry">
            <mxPoint x="350" y="430" as="sourcePoint" />
            <mxPoint x="400" y="380" as="targetPoint" />
            <Array as="points">
              <mxPoint x="435" y="286" />
            </Array>
          </mxGeometry>
        </mxCell>
        <mxCell id="WsmTqJtfwTThgb06gDy2-131" value="" style="endArrow=classic;html=1;rounded=0;exitX=1;exitY=0.5;exitDx=0;exitDy=0;" edge="1" parent="1" source="WsmTqJtfwTThgb06gDy2-115">
          <mxGeometry width="50" height="50" relative="1" as="geometry">
            <mxPoint x="430" y="500" as="sourcePoint" />
            <mxPoint x="800" y="420" as="targetPoint" />
          </mxGeometry>
        </mxCell>
        <mxCell id="WsmTqJtfwTThgb06gDy2-132" value="" style="endArrow=classic;html=1;rounded=0;exitX=1;exitY=0.5;exitDx=0;exitDy=0;" edge="1" parent="1" source="WsmTqJtfwTThgb06gDy2-126" target="WsmTqJtfwTThgb06gDy2-101">
          <mxGeometry width="50" height="50" relative="1" as="geometry">
            <mxPoint x="710" y="510" as="sourcePoint" />
            <mxPoint x="760" y="460" as="targetPoint" />
          </mxGeometry>
        </mxCell>
      </root>
    </mxGraphModel>
  </diagram>
</mxfile>
